<svg width="364" height="227" viewBox="0 0 364 227" fill="none" xmlns="http://www.w3.org/2000/svg">
<path d="M28.8584 206.18H22.2957L12.3204 168.575H18.8831L28.8584 206.18ZM5.62644 214.514V168.575H12.3204V214.514H5.62644ZM28.8584 206.18L39.4244 168.575H45.9215L35.3555 206.18H28.8584ZM45.9215 214.514V168.575H52.878V214.514H45.9215ZM91.8559 214.514L106.228 168.575H113.578L105.506 194.301H121.716L113.578 168.575H121.06L135.564 214.514H128.082L123.751 200.798H103.472L99.2061 214.514H91.8559ZM192.415 215.433C179.88 215.433 169.576 206.049 169.576 191.545C169.576 177.041 179.88 167.657 192.415 167.657C202.127 167.657 210.396 173.301 213.35 182.423H205.671C203.243 177.435 198.452 174.351 192.415 174.351C183.424 174.351 176.795 181.307 176.795 191.545C176.795 201.783 183.424 208.739 192.415 208.739C198.715 208.739 203.637 205.392 205.934 200.011H213.546C210.79 209.527 202.324 215.433 192.415 215.433ZM247.4 214.514L261.772 168.575H269.122L261.05 194.301H277.26L269.122 168.575H276.604L291.107 214.514H283.626L279.295 200.798H259.016L254.75 214.514H247.4ZM330.109 214.514V168.575H343.759C352.357 168.575 358.657 173.694 358.657 181.963C358.657 188.723 354.457 192.923 348.288 194.236L360.691 214.514H352.75L337.065 188.92H343.759C348.419 188.92 351.372 186.36 351.372 181.963C351.372 177.632 348.419 175.073 343.759 175.073H337.065V214.514H330.109Z" fill="white"/>
<path d="M250.261 0V108.736C237.75 87.6697 214.905 73.5507 188.757 73.5507C162.608 73.5507 139.764 87.6697 127.253 108.736V57.0652H117.108V57.1781L16.9272 115.018L16.929 115.021L16.9272 115.022V145.833H27.0722V120.875L117.108 68.8925V145.833H127.253C127.253 111.47 154.835 83.6956 188.757 83.6956C222.679 83.6956 250.261 111.47 250.261 145.833H260.405V10.1449H335.224V145.833H345.369V0H250.261Z" fill="white"/>
<rect x="314.442" y="21.5146" width="5.07246" height="5.07246" fill="white"/>
<rect x="321.442" y="21.5146" width="5.07246" height="5.07246" fill="white"/>
<rect x="314.442" y="28.5146" width="5.07246" height="5.07246" fill="white"/>
<rect x="321.442" y="28.5146" width="5.07246" height="5.07246" fill="white"/>
<rect x="107.442" y="83.5146" width="5.07246" height="5.07246" fill="white"/>
<rect x="100.442" y="90.5146" width="5.07246" height="5.07246" fill="white"/>
<rect x="107.442" y="90.5146" width="5.07246" height="5.07246" fill="white"/>
</svg>
