<svg width="730" height="280" viewBox="0 0 730 280" fill="none" xmlns="http://www.w3.org/2000/svg">
<path d="M20.2696 266.458C14.0195 266.458 8.88203 261.779 8.88203 254.547C8.88203 247.315 14.0195 242.636 20.2696 242.636C25.1125 242.636 29.2356 245.45 30.7082 249.999H26.8796C25.6688 247.512 23.2801 245.974 20.2696 245.974C15.7865 245.974 12.4815 249.442 12.4815 254.547C12.4815 259.652 15.7865 263.12 20.2696 263.12C23.411 263.12 25.8652 261.452 27.0105 258.768H30.8063C29.432 263.513 25.2107 266.458 20.2696 266.458ZM44.2897 266.458C39.8721 266.458 35.6508 263.448 35.6508 257.787C35.6508 252.126 39.8721 249.115 44.2897 249.115C48.7072 249.115 52.9285 252.126 52.9285 257.787C52.9285 263.448 48.7072 266.458 44.2897 266.458ZM39.1194 257.787C39.1194 261.321 41.3773 263.317 44.2897 263.317C47.2347 263.317 49.4599 261.321 49.4599 257.787C49.4599 254.253 47.2347 252.256 44.2897 252.256C41.3773 252.256 39.1194 254.253 39.1194 257.787ZM71.0485 256.87C71.0485 253.533 69.3469 252.256 67.1872 252.256C64.962 252.256 62.5733 253.533 62.5733 256.87V266H59.2355V249.573H62.5733V251.995C63.9476 249.966 66.2055 249.115 68.1689 249.115C71.8011 249.115 74.3862 251.471 74.3862 256.052V266H71.0485V256.87ZM87.1839 266.458C83.8134 266.458 81.2283 264.593 80.8684 261.452H84.337C84.7297 262.859 85.7441 263.513 87.1839 263.513C88.6891 263.513 89.7363 262.728 89.7363 261.419C89.7363 257.59 81.032 260.895 81.032 254.187C81.032 251.144 83.7153 249.115 86.8894 249.115C90.0962 249.115 92.485 250.948 92.8449 253.827H89.3763C89.0164 252.682 88.1656 252.06 86.8894 252.06C85.6132 252.06 84.5006 252.78 84.5006 254.023C84.5006 257.754 93.2049 254.482 93.2049 261.288C93.2049 264.266 90.5871 266.458 87.1839 266.458ZM105.393 266C102.546 266 100.485 264.168 100.485 261.288V252.584H97.5724V249.573H100.485V245.352H103.822V249.573H107.978V252.584H103.822V261.288C103.822 262.4 104.313 262.99 105.393 262.99H107.815V266H105.393ZM114.146 266V249.573H117.484V251.995C118.858 249.966 121.116 249.115 123.079 249.115V252.584C119.872 252.027 117.484 253.533 117.484 256.87V266H114.146ZM134.662 266.458C131.029 266.458 128.444 264.102 128.444 259.521V249.573H131.782V258.703C131.782 262.041 133.484 263.317 135.676 263.317C137.868 263.317 140.257 262.041 140.257 258.703V249.573H143.595V266H140.257V263.579C138.883 265.607 136.658 266.458 134.662 266.458ZM158.192 266.458C154.004 266.458 149.914 263.448 149.914 257.787C149.914 252.126 154.004 249.115 158.192 249.115C161.497 249.115 164.835 250.98 165.98 254.743H162.283C161.53 253.074 159.927 252.256 158.192 252.256C155.476 252.256 153.382 254.253 153.382 257.787C153.382 261.321 155.476 263.317 158.192 263.317C160.058 263.317 161.628 262.4 162.381 260.503H166.046C164.999 264.495 161.596 266.458 158.192 266.458ZM178.117 266C175.27 266 173.209 264.168 173.209 261.288V252.584H170.296V249.573H173.209V245.352H176.546V249.573H180.702V252.584H176.546V261.288C176.546 262.4 177.037 262.99 178.117 262.99H180.538V266H178.117ZM186.838 266V249.573H190.176V266H186.838ZM186.38 245.319C186.38 244.076 187.296 243.192 188.507 243.192C189.718 243.192 190.634 244.076 190.634 245.319C190.634 246.563 189.718 247.446 188.507 247.446C187.296 247.446 186.38 246.563 186.38 245.319ZM204.931 266.458C200.513 266.458 196.292 263.448 196.292 257.787C196.292 252.126 200.513 249.115 204.931 249.115C209.348 249.115 213.569 252.126 213.569 257.787C213.569 263.448 209.348 266.458 204.931 266.458ZM199.76 257.787C199.76 261.321 202.018 263.317 204.931 263.317C207.876 263.317 210.101 261.321 210.101 257.787C210.101 254.253 207.876 252.256 204.931 252.256C202.018 252.256 199.76 254.253 199.76 257.787ZM231.689 256.87C231.689 253.533 229.988 252.256 227.828 252.256C225.603 252.256 223.214 253.533 223.214 256.87V266H219.876V249.573H223.214V251.995C224.589 249.966 226.846 249.115 228.81 249.115C232.442 249.115 235.027 251.471 235.027 256.052V266H231.689V256.87Z" fill="#1E2C40"/>
<path d="M280.029 266L287.195 243.094H290.86L286.835 255.921H294.918L290.86 243.094H294.59L301.822 266H298.092L295.932 259.161H285.821L283.694 266H280.029ZM312.532 266.458C309.161 266.458 306.576 264.593 306.216 261.452H309.685C310.078 262.859 311.092 263.513 312.532 263.513C314.037 263.513 315.084 262.728 315.084 261.419C315.084 257.59 306.38 260.895 306.38 254.187C306.38 251.144 309.063 249.115 312.237 249.115C315.444 249.115 317.833 250.948 318.193 253.827H314.724C314.364 252.682 313.514 252.06 312.237 252.06C310.961 252.06 309.849 252.78 309.849 254.023C309.849 257.754 318.553 254.482 318.553 261.288C318.553 264.266 315.935 266.458 312.532 266.458ZM330.441 266.458C327.071 266.458 324.486 264.593 324.126 261.452H327.594C327.987 262.859 329.001 263.513 330.441 263.513C331.946 263.513 332.994 262.728 332.994 261.419C332.994 257.59 324.289 260.895 324.289 254.187C324.289 251.144 326.973 249.115 330.147 249.115C333.354 249.115 335.742 250.948 336.102 253.827H332.634C332.274 252.682 331.423 252.06 330.147 252.06C328.871 252.06 327.758 252.78 327.758 254.023C327.758 257.754 336.462 254.482 336.462 261.288C336.462 264.266 333.844 266.458 330.441 266.458ZM342.753 266V249.573H346.091V266H342.753ZM342.295 245.319C342.295 244.076 343.212 243.192 344.422 243.192C345.633 243.192 346.549 244.076 346.549 245.319C346.549 246.563 345.633 247.446 344.422 247.446C343.212 247.446 342.295 246.563 342.295 245.319ZM358.718 266.458C355.348 266.458 352.763 264.593 352.403 261.452H355.871C356.264 262.859 357.279 263.513 358.718 263.513C360.224 263.513 361.271 262.728 361.271 261.419C361.271 257.59 352.566 260.895 352.566 254.187C352.566 251.144 355.25 249.115 358.424 249.115C361.631 249.115 364.019 250.948 364.379 253.827H360.911C360.551 252.682 359.7 252.06 358.424 252.06C357.148 252.06 356.035 252.78 356.035 254.023C356.035 257.754 364.739 254.482 364.739 261.288C364.739 264.266 362.121 266.458 358.718 266.458ZM376.928 266C374.081 266 372.019 264.168 372.019 261.288V252.584H369.107V249.573H372.019V245.352H375.357V249.573H379.513V252.584H375.357V261.288C375.357 262.4 375.848 262.99 376.928 262.99H379.349V266H376.928ZM389.94 266.458C387.027 266.458 384.802 264.855 384.802 261.681C384.802 258.997 386.373 257.525 389.547 256.674L394.783 255.3V254.383C394.783 253.173 393.768 252.256 391.969 252.256C390.496 252.256 389.089 252.813 388.631 254.711H385.031C385.62 250.98 388.369 249.115 391.969 249.115C395.83 249.115 398.12 251.209 398.12 254.383V266H394.783V264.233C393.605 265.836 391.641 266.458 389.94 266.458ZM388.173 261.452C388.173 262.924 389.285 263.579 390.66 263.579C392.656 263.579 394.783 262.302 394.783 259.815V258.081L390.267 259.259C388.762 259.684 388.173 260.339 388.173 261.452ZM416.969 256.87C416.969 253.533 415.267 252.256 413.107 252.256C410.882 252.256 408.493 253.533 408.493 256.87V266H405.156V249.573H408.493V251.995C409.868 249.966 412.126 249.115 414.089 249.115C417.721 249.115 420.306 251.471 420.306 256.052V266H416.969V256.87ZM434.488 266.458C430.3 266.458 426.209 263.448 426.209 257.787C426.209 252.126 430.3 249.115 434.488 249.115C437.793 249.115 441.131 250.98 442.276 254.743H438.579C437.826 253.074 436.223 252.256 434.488 252.256C431.772 252.256 429.678 254.253 429.678 257.787C429.678 261.321 431.772 263.317 434.488 263.317C436.353 263.317 437.924 262.4 438.677 260.503H442.342C441.295 264.495 437.891 266.458 434.488 266.458ZM455.693 266.458C451.341 266.458 447.25 263.448 447.25 257.787C447.25 252.126 451.341 249.115 455.529 249.115C459.554 249.115 463.743 251.962 463.743 257.754V258.768H450.588C450.948 261.877 453.108 263.415 455.693 263.415C457.362 263.415 458.703 262.859 459.456 261.779H463.35C461.976 264.92 458.769 266.458 455.693 266.458ZM450.654 256.281H460.209C459.816 253.173 457.624 251.896 455.529 251.896C453.173 251.896 451.177 253.369 450.654 256.281Z" fill="#1E2C40"/>
<path d="M515.284 266V243.094H522.09C526.377 243.094 529.518 245.646 529.518 249.769C529.518 253.14 527.424 255.234 524.348 255.889L530.533 266H526.573L518.753 253.238H522.09C524.414 253.238 525.886 251.962 525.886 249.769C525.886 247.61 524.414 246.334 522.09 246.334H518.753V266H515.284ZM542.767 266.458C538.415 266.458 534.325 263.448 534.325 257.787C534.325 252.126 538.415 249.115 542.603 249.115C546.628 249.115 550.817 251.962 550.817 257.754V258.768H537.662C538.022 261.877 540.182 263.415 542.767 263.415C544.436 263.415 545.778 262.859 546.53 261.779H550.424C549.05 264.92 545.843 266.458 542.767 266.458ZM537.728 256.281H547.283C546.89 253.173 544.698 251.896 542.603 251.896C540.247 251.896 538.251 253.369 537.728 256.281ZM541.098 247.61L544.305 243.519H547.97L544.076 247.61H541.098ZM568.636 256.87C568.636 253.533 566.934 252.256 564.774 252.256C562.549 252.256 560.16 253.533 560.16 256.87V266H556.823V249.573H560.16V251.995C561.535 249.966 563.793 249.115 565.756 249.115C569.388 249.115 571.973 251.471 571.973 256.052V266H568.636V256.87ZM586.515 266.458C582.098 266.458 577.877 263.448 577.877 257.787C577.877 252.126 582.098 249.115 586.515 249.115C590.933 249.115 595.154 252.126 595.154 257.787C595.154 263.448 590.933 266.458 586.515 266.458ZM581.345 257.787C581.345 261.321 583.603 263.317 586.515 263.317C589.46 263.317 591.686 261.321 591.686 257.787C591.686 254.253 589.46 252.256 586.515 252.256C583.603 252.256 581.345 254.253 581.345 257.787ZM603.025 266L598.28 249.573H601.749L606.527 266H603.025ZM606.527 266L611.304 249.573H614.773L609.963 266H606.527ZM623.278 266.458C620.366 266.458 618.141 264.855 618.141 261.681C618.141 258.997 619.712 257.525 622.886 256.674L628.121 255.3V254.383C628.121 253.173 627.107 252.256 625.307 252.256C623.835 252.256 622.428 252.813 621.97 254.711H618.37C618.959 250.98 621.708 249.115 625.307 249.115C629.169 249.115 631.459 251.209 631.459 254.383V266H628.121V264.233C626.943 265.836 624.98 266.458 623.278 266.458ZM621.511 261.452C621.511 262.924 622.624 263.579 623.998 263.579C625.994 263.579 628.121 262.302 628.121 259.815V258.081L623.606 259.259C622.1 259.684 621.511 260.339 621.511 261.452ZM644.679 266C641.832 266 639.77 264.168 639.77 261.288V252.584H636.858V249.573H639.77V245.352H643.108V249.573H647.264V252.584H643.108V261.288C643.108 262.4 643.599 262.99 644.679 262.99H647.1V266H644.679ZM653.4 266V249.573H656.737V266H653.4ZM652.942 245.319C652.942 244.076 653.858 243.192 655.069 243.192C656.279 243.192 657.196 244.076 657.196 245.319C657.196 246.563 656.279 247.446 655.069 247.446C653.858 247.446 652.942 246.563 652.942 245.319ZM671.492 266.458C667.075 266.458 662.854 263.448 662.854 257.787C662.854 252.126 667.075 249.115 671.492 249.115C675.91 249.115 680.131 252.126 680.131 257.787C680.131 263.448 675.91 266.458 671.492 266.458ZM666.322 257.787C666.322 261.321 668.58 263.317 671.492 263.317C674.437 263.317 676.663 261.321 676.663 257.787C676.663 254.253 674.437 252.256 671.492 252.256C668.58 252.256 666.322 254.253 666.322 257.787ZM698.251 256.87C698.251 253.533 696.55 252.256 694.39 252.256C692.165 252.256 689.776 253.533 689.776 256.87V266H686.438V249.573H689.776V251.995C691.15 249.966 693.408 249.115 695.372 249.115C699.004 249.115 701.589 251.471 701.589 256.052V266H698.251V256.87Z" fill="#1E2C40"/>
<path d="M211.417 206.18H204.854L194.879 168.576H201.441L211.417 206.18ZM188.185 214.515V168.576H194.879V214.515H188.185ZM211.417 206.18L221.983 168.576H228.48L217.914 206.18H211.417ZM228.48 214.515V168.576H235.436V214.515H228.48ZM274.414 214.515L288.786 168.576H296.137L288.064 194.301H304.274L296.137 168.576H303.618L318.122 214.515H310.64L306.309 200.799H286.03L281.764 214.515H274.414ZM374.973 215.433C362.438 215.433 352.134 206.049 352.134 191.545C352.134 177.042 362.438 167.657 374.973 167.657C384.685 167.657 392.954 173.301 395.908 182.423H388.229C385.801 177.435 381.01 174.351 374.973 174.351C365.982 174.351 359.353 181.307 359.353 191.545C359.353 201.783 365.982 208.739 374.973 208.739C381.273 208.739 386.195 205.392 388.492 200.011H396.105C393.348 209.527 384.882 215.433 374.973 215.433ZM429.958 214.515L444.33 168.576H451.681L443.608 194.301H459.818L451.681 168.576H459.162L473.666 214.515H466.184L461.853 200.799H441.574L437.308 214.515H429.958ZM512.667 214.515V168.576H526.318C534.915 168.576 541.215 173.695 541.215 181.964C541.215 188.723 537.015 192.923 530.846 194.236L543.249 214.515H535.308L519.624 188.92H526.318C530.977 188.92 533.93 186.361 533.93 181.964C533.93 177.632 530.977 175.073 526.318 175.073H519.624V214.515H512.667Z" fill="#1E2C40"/>
<path d="M432.819 0V108.736C420.308 87.6697 397.464 73.5507 371.315 73.5507C345.167 73.5507 322.322 87.6697 309.811 108.736V57.0652H299.667V57.1781L199.485 115.018L199.487 115.021L199.485 115.022V145.833H209.63H235H288H299.667H309.811C355 145.833 337.393 145.833 371.315 145.833C405.237 145.833 371.315 145.833 432.819 145.833H442.964H453.5H482.5H499H517.782H527.927V0H432.819Z" fill="#1E2C40"/>
<rect x="290" y="83.5144" width="5.07246" height="5.07246" fill="white"/>
<rect x="283" y="90.5144" width="5.07246" height="5.07246" fill="white"/>
<rect x="290" y="90.5144" width="5.07246" height="5.07246" fill="white"/>
<rect x="497" y="21.5144" width="5.07246" height="5.07246" fill="white"/>
<rect x="504" y="21.5144" width="5.07246" height="5.07246" fill="white"/>
<rect x="497" y="28.5144" width="5.07246" height="5.07246" fill="white"/>
<rect x="504" y="28.5144" width="5.07246" height="5.07246" fill="white"/>
</svg>
