<svg width="329" height="146" viewBox="0 0 329 146" fill="none" xmlns="http://www.w3.org/2000/svg">
<path d="M233.333 0V108.736C220.823 87.6697 197.978 73.5507 171.83 73.5507C145.681 73.5507 122.836 87.6697 110.326 108.736V57.0652H100.181V57.1781L0 115.018L0.0017191 115.021L0 115.022V145.833H10.1449H35.5146H88.5146H100.181H110.326C155.515 145.833 137.907 145.833 171.83 145.833C205.752 145.833 171.83 145.833 233.333 145.833H243.478H254.015H283.015H299.515H318.297H328.442V0H233.333Z" fill="#1E2C40"/>
<rect x="90.5146" y="83.5144" width="5.07246" height="5.07246" fill="white"/>
<rect x="83.5146" y="90.5144" width="5.07246" height="5.07246" fill="white"/>
<rect x="90.5146" y="90.5144" width="5.07246" height="5.07246" fill="white"/>
<rect x="297.515" y="21.5144" width="5.07246" height="5.07246" fill="white"/>
<rect x="304.515" y="21.5144" width="5.07246" height="5.07246" fill="white"/>
<rect x="297.515" y="28.5144" width="5.07246" height="5.07246" fill="white"/>
<rect x="304.515" y="28.5144" width="5.07246" height="5.07246" fill="white"/>
</svg>
