<?xml version="1.0" standalone="no"?>
<!DOCTYPE svg PUBLIC "-//W3C//DTD SVG 20010904//EN"
 "http://www.w3.org/TR/2001/REC-SVG-20010904/DTD/svg10.dtd">
<svg version="1.0" xmlns="http://www.w3.org/2000/svg"
 width="1316.000000pt" height="1316.000000pt" viewBox="0 0 1316.000000 1316.000000"
 preserveAspectRatio="xMidYMid meet">
<metadata>
Created by potrace 1.14, written by Peter Selinger 2001-2017
</metadata>
<g transform="translate(0.000000,1316.000000) scale(0.100000,-0.100000)"
fill="#000000" stroke="none">
<path d="M9328 7338 l-3 -2161 -59 89 c-113 171 -212 290 -371 450 -88 88
-203 194 -255 234 -362 279 -772 470 -1194 555 -359 73 -776 74 -1126 4 -753
-151 -1408 -592 -1834 -1234 l-66 -100 0 1023 0 1022 -206 0 -205 0 -2005
-1157 -2004 -1158 0 -622 0 -623 205 0 205 0 2 502 3 502 830 479 c457 264
1262 729 1790 1033 l960 555 3 -1536 2 -1535 208 0 209 0 6 133 c51 1062 784
1985 1797 2263 585 161 1186 105 1725 -161 266 -131 470 -280 680 -496 428
-441 662 -984 700 -1626 l7 -113 204 0 204 0 0 2715 0 2715 1495 0 1495 0 0
-2715 0 -2715 205 0 205 0 0 2920 0 2920 -1905 0 -1905 0 -2 -2162z"/>
<path d="M11900 8535 l0 -105 105 0 105 0 0 105 0 105 -105 0 -105 0 0 -105z"/>
<path d="M12174 8627 c-3 -8 -4 -54 -2 -103 l3 -89 108 -3 107 -3 0 106 0 105
-105 0 c-79 0 -107 -3 -111 -13z"/>
<path d="M11900 8255 l0 -105 105 0 105 0 0 105 0 105 -105 0 -105 0 0 -105z"/>
<path d="M12174 8347 c-3 -8 -4 -54 -2 -103 l3 -89 108 -3 107 -3 0 106 0 105
-105 0 c-79 0 -107 -3 -111 -13z"/>
<path d="M3627 6164 c-4 -4 -7 -54 -7 -111 l0 -103 105 0 106 0 -3 108 -3 107
-95 3 c-53 1 -99 0 -103 -4z"/>
<path d="M3340 5775 l0 -105 105 0 105 0 0 105 0 105 -105 0 -105 0 0 -105z"/>
<path d="M3620 5775 l0 -105 105 0 105 0 0 105 0 105 -105 0 -105 0 0 -105z"/>
</g>
</svg>
