<svg width="364" height="227" viewBox="0 0 364 227" fill="none" xmlns="http://www.w3.org/2000/svg">
<path d="M28.9312 206.18H22.3685L12.3932 168.576H18.9559L28.9312 206.18ZM5.69919 214.515V168.576H12.3932V214.515H5.69919ZM28.9312 206.18L39.4972 168.576H45.9942L35.4283 206.18H28.9312ZM45.9942 214.515V168.576H52.9507V214.515H45.9942ZM91.9286 214.515L106.301 168.576H113.651L105.579 194.301H121.789L113.651 168.576H121.133L135.636 214.515H128.155L123.823 200.799H103.545L99.2789 214.515H91.9286ZM192.487 215.433C179.953 215.433 169.649 206.049 169.649 191.545C169.649 177.042 179.953 167.657 192.487 167.657C202.2 167.657 210.469 173.301 213.422 182.423H205.744C203.316 177.435 198.525 174.351 192.487 174.351C183.496 174.351 176.868 181.307 176.868 191.545C176.868 201.783 183.496 208.739 192.487 208.739C198.788 208.739 203.71 205.392 206.006 200.011H213.619C210.863 209.527 202.397 215.433 192.487 215.433ZM247.473 214.515L261.845 168.576H269.195L261.123 194.301H277.333L269.195 168.576H276.677L291.18 214.515H283.699L279.367 200.799H259.089L254.823 214.515H247.473ZM330.182 214.515V168.576H343.832C352.429 168.576 358.73 173.695 358.73 181.964C358.73 188.723 354.529 192.923 348.36 194.236L360.764 214.515H352.823L337.138 188.92H343.832C348.492 188.92 351.445 186.361 351.445 181.964C351.445 177.632 348.492 175.073 343.832 175.073H337.138V214.515H330.182Z" fill="white"/>
<path d="M250.333 0V108.736C237.823 87.6697 214.978 73.5507 188.83 73.5507C162.681 73.5507 139.836 87.6697 127.326 108.736V57.0652H117.181V57.1781L17 115.018L17.0017 115.021L17 115.022V145.833H27.1449H52.5146H105.515H117.181H127.326C172.515 145.833 154.907 145.833 188.83 145.833C222.752 145.833 188.83 145.833 250.333 145.833H260.478H271.015H300.015H316.515H335.297H345.442V0H250.333Z" fill="white"/>
<rect x="107.515" y="83.5144" width="5.07246" height="5.07246" fill="white"/>
<rect x="100.515" y="90.5144" width="5.07246" height="5.07246" fill="white"/>
<rect x="107.515" y="90.5144" width="5.07246" height="5.07246" fill="white"/>
<rect x="314.515" y="21.5144" width="5.07246" height="5.07246" fill="white"/>
<rect x="321.515" y="21.5144" width="5.07246" height="5.07246" fill="white"/>
<rect x="314.515" y="28.5144" width="5.07246" height="5.07246" fill="white"/>
<rect x="321.515" y="28.5144" width="5.07246" height="5.07246" fill="white"/>
</svg>
